<mxfile host="app.diagrams.net" modified="2021-04-12T10:33:33.651Z" agent="5.0 (Windows NT 6.1; Win64; x64) AppleWebKit/537.36 (KHTML, like Gecko) Chrome/89.0.4389.72 Safari/537.36" etag="sMHwSzWzVnFTEygyoHdb" version="14.2.9" type="github">
  <diagram id="0aKIKBk8Po-XCpgHhdkZ" name="第 1 页">
    <mxGraphModel dx="1414" dy="786" grid="0" gridSize="10" guides="1" tooltips="1" connect="1" arrows="1" fold="1" page="0" pageScale="1" pageWidth="827" pageHeight="1169" math="0" shadow="0">
      <root>
        <mxCell id="0" />
        <mxCell id="1" parent="0" />
        <mxCell id="5BI3uPOLL03prT9fK4s5-1" value="云平台" style="rounded=0;whiteSpace=wrap;html=1;" vertex="1" parent="1">
          <mxGeometry x="310" y="110" width="140" height="30" as="geometry" />
        </mxCell>
        <mxCell id="5BI3uPOLL03prT9fK4s5-2" value="" style="ellipse;shape=cloud;whiteSpace=wrap;html=1;" vertex="1" parent="1">
          <mxGeometry x="265" y="140" width="230" height="130" as="geometry" />
        </mxCell>
        <mxCell id="5BI3uPOLL03prT9fK4s5-3" value="物模型定义" style="rounded=0;whiteSpace=wrap;html=1;" vertex="1" parent="1">
          <mxGeometry x="330" y="170" width="100" height="30" as="geometry" />
        </mxCell>
        <mxCell id="5BI3uPOLL03prT9fK4s5-4" value="数据解析" style="rounded=0;whiteSpace=wrap;html=1;" vertex="1" parent="1">
          <mxGeometry x="330" y="210" width="100" height="30" as="geometry" />
        </mxCell>
        <mxCell id="5BI3uPOLL03prT9fK4s5-5" value="" style="shape=flexArrow;endArrow=classic;html=1;" edge="1" parent="1">
          <mxGeometry width="50" height="50" relative="1" as="geometry">
            <mxPoint x="354.5" y="270" as="sourcePoint" />
            <mxPoint x="355" y="350" as="targetPoint" />
          </mxGeometry>
        </mxCell>
        <mxCell id="5BI3uPOLL03prT9fK4s5-7" value="" style="shape=flexArrow;endArrow=classic;html=1;" edge="1" parent="1">
          <mxGeometry width="50" height="50" relative="1" as="geometry">
            <mxPoint x="405" y="350" as="sourcePoint" />
            <mxPoint x="404.5" y="270" as="targetPoint" />
          </mxGeometry>
        </mxCell>
        <mxCell id="5BI3uPOLL03prT9fK4s5-9" value="设备" style="rounded=0;whiteSpace=wrap;html=1;" vertex="1" parent="1">
          <mxGeometry x="310" y="360" width="140" height="30" as="geometry" />
        </mxCell>
        <mxCell id="5BI3uPOLL03prT9fK4s5-10" value="数据上行&lt;br&gt;是被发送消息到Topic&lt;br&gt;&lt;span style=&quot;color: rgb(96 , 98 , 102) ; font-family: &amp;#34;microsoft yahei&amp;#34; , &amp;#34;chinese quote&amp;#34; , , &amp;#34;blinkmacsystemfont&amp;#34; , &amp;#34;segoe ui&amp;#34; , &amp;#34;pingfang sc&amp;#34; , &amp;#34;hiragino sans gb&amp;#34; , &amp;#34;helvetica neue&amp;#34; , &amp;#34;helvetica&amp;#34; , &amp;#34;arial&amp;#34; , sans-serif , &amp;#34;apple color emoji&amp;#34; , &amp;#34;segoe ui emoji&amp;#34; , &amp;#34;segoe ui symbol&amp;#34; ; font-size: 14px ; text-align: left ; background-color: rgb(245 , 247 , 250)&quot;&gt;/sdt/up ...&lt;/span&gt;" style="text;html=1;align=center;verticalAlign=middle;resizable=0;points=[];autosize=1;" vertex="1" parent="1">
          <mxGeometry x="195" y="275" width="130" height="50" as="geometry" />
        </mxCell>
        <mxCell id="5BI3uPOLL03prT9fK4s5-11" value="数据下行&lt;br&gt;设备订阅Topic&lt;br&gt;/sdt/down..." style="text;html=1;align=center;verticalAlign=middle;resizable=0;points=[];autosize=1;" vertex="1" parent="1">
          <mxGeometry x="450" y="290" width="90" height="50" as="geometry" />
        </mxCell>
      </root>
    </mxGraphModel>
  </diagram>
</mxfile>
